{
  "accessors": [
    {
      "bufferView": 2,
      "componentType": 5126,
      "count": 2658,
      "max": [
        10.382750511169434,
        -17.300613403320313,
        4.535588264465332
      ],
      "min": [
        -10.381071090698242,
        -21.724502563476563,
        2.783499240875244
      ],
      "type": "VEC3"
    },
    {
      "bufferView": 2,
      "byteOffset": 31896,
      "componentType": 5126,
      "count": 2658,
      "max": [
        1.0,
        0.9998961091041565,
        0.9994884729385376
      ],
      "min": [
        -1.0,
        -0.9998961687088013,
        -0.9995146989822388
      ],
      "type": "VEC3"
    },
    {
      "bufferView": 3,
      "componentType": 5126,
      "count": 2658,
      "max": [
        1.0,
        0.9993974566459656,
        0.9999992251396179,
        1.0
      ],
      "min": [
        -1.0,
        -0.9999848008155823,
        -1.0,
        -1.0
      ],
      "type": "VEC4"
    },
    {
      "bufferView": 1,
      "componentType": 5126,
      "count": 2658,
      "max": [
        0.9998219609260559,
        0.9923791885375977
      ],
      "min": [
        0.0001779244194040075,
        0.0001779244194040075
      ],
      "type": "VEC2"
    },
    {
      "bufferView": 0,
      "componentType": 5125,
      "count": 6624,
      "type": "SCALAR"
    },
    {
      "bufferView": 2,
      "byteOffset": 63792,
      "componentType": 5126,
      "count": 387,
      "max": [
        10.500005722045898,
        17.500003814697266,
        7.975540637969971
      ],
      "min": [
        -10.500005722045898,
        -17.500003814697266,
        0.0
      ],
      "type": "VEC3"
    },
    {
      "bufferView": 2,
      "byteOffset": 68436,
      "componentType": 5126,
      "count": 387,
      "max": [
        1.0,
        1.0,
        1.0
      ],
      "min": [
        -1.0,
        -1.0,
        -1.0
      ],
      "type": "VEC3"
    },
    {
      "bufferView": 3,
      "byteOffset": 42528,
      "componentType": 5126,
      "count": 387,
      "max": [
        1.0,
        1.0,
        1.0,
        1.0
      ],
      "min": [
        -1.0,
        -1.0,
        -1.0,
        1.0
      ],
      "type": "VEC4"
    },
    {
      "bufferView": 1,
      "byteOffset": 21264,
      "componentType": 5126,
      "count": 387,
      "max": [
        0.9984081387519836,
        0.9998050928115845
      ],
      "min": [
        6.227195262908936e-05,
        6.999075412750244e-05
      ],
      "type": "VEC2"
    },
    {
      "bufferView": 0,
      "byteOffset": 26496,
      "componentType": 5125,
      "count": 573,
      "type": "SCALAR"
    },
    {
      "bufferView": 2,
      "byteOffset": 73080,
      "componentType": 5126,
      "count": 8,
      "max": [
        9.70269775390625,
        -17.316593170166016,
        2.985933542251587
      ],
      "min": [
        -7.21024227142334,
        -17.332000732421875,
        0.845203161239624
      ],
      "type": "VEC3"
    },
    {
      "bufferView": 2,
      "byteOffset": 73176,
      "componentType": 5126,
      "count": 8,
      "max": [
        3.875160530242283e-07,
        -1.0,
        1.2055973286351218e-07
      ],
      "min": [
        0.0,
        -1.0,
        0.0
      ],
      "type": "VEC3"
    },
    {
      "bufferView": 3,
      "byteOffset": 48720,
      "componentType": 5126,
      "count": 8,
      "max": [
        -1.0,
        0.0,
        2.254988800132196e-07,
        1.0
      ],
      "min": [
        -1.0,
        -3.8751608144593774e-07,
        -8.942707552250795e-08,
        1.0
      ],
      "type": "VEC4"
    },
    {
      "bufferView": 1,
      "byteOffset": 24360,
      "componentType": 5126,
      "count": 8,
      "max": [
        0.9998877644538879,
        0.8700057864189148
      ],
      "min": [
        0.00011227703362237662,
        0.00011227703362237662
      ],
      "type": "VEC2"
    },
    {
      "bufferView": 0,
      "byteOffset": 28788,
      "componentType": 5125,
      "count": 12,
      "type": "SCALAR"
    }
  ],
  "asset": {
    "extras": {
      "author": "FenixST (https://sketchfab.com/FenixST)",
      "license": "CC-BY-4.0 (http://creativecommons.org/licenses/by/4.0/)",
      "source": "https://sketchfab.com/3d-models/car-workshop-36e7035eeccc4a98bfad7738e9221740",
      "title": "Car Workshop"
    },
    "generator": "Sketchfab-12.67.0",
    "version": "2.0"
  },
  "bufferViews": [
    {
      "buffer": 0,
      "byteLength": 28836,
      "name": "floatBufferViews",
      "target": 34963
    },
    {
      "buffer": 0,
      "byteLength": 24424,
      "byteOffset": 28836,
      "byteStride": 8,
      "name": "floatBufferViews",
      "target": 34962
    },
    {
      "buffer": 0,
      "byteLength": 73272,
      "byteOffset": 53260,
      "byteStride": 12,
      "name": "floatBufferViews",
      "target": 34962
    },
    {
      "buffer": 0,
      "byteLength": 48848,
      "byteOffset": 126532,
      "byteStride": 16,
      "name": "floatBufferViews",
      "target": 34962
    }
  ],
  "buffers": [
    {
      "byteLength": 175380,
      "uri": "scene.bin"
    }
  ],
  "images": [
    {
      "uri": "textures/House_05_metal_roofing_baseColor.jpeg"
    },
    {
      "uri": "textures/House_05_metal_roofing_metallicRoughness.png"
    },
    {
      "uri": "textures/House_05_metal_roofing_normal.png"
    },
    {
      "uri": "textures/House_05_baseColor.jpeg"
    },
    {
      "uri": "textures/House_05_metallicRoughness.png"
    },
    {
      "uri": "textures/House_05_normal.png"
    },
    {
      "uri": "textures/House_05_Windows_Glass_baseColor.png"
    },
    {
      "uri": "textures/House_05_Windows_Glass_metallicRoughness.png"
    },
    {
      "uri": "textures/House_05_Windows_Glass_normal.png"
    }
  ],
  "materials": [
    {
      "doubleSided": true,
      "name": "House_05_metal_roofing",
      "normalTexture": {
        "index": 2
      },
      "occlusionTexture": {
        "index": 1
      },
      "pbrMetallicRoughness": {
        "baseColorTexture": {
          "index": 0
        },
        "metallicRoughnessTexture": {
          "index": 1
        }
      }
    },
    {
      "doubleSided": true,
      "name": "House_05",
      "normalTexture": {
        "index": 5
      },
      "occlusionTexture": {
        "index": 4
      },
      "pbrMetallicRoughness": {
        "baseColorTexture": {
          "index": 3
        },
        "metallicRoughnessTexture": {
          "index": 4
        }
      }
    },
    {
      "alphaMode": "BLEND",
      "doubleSided": true,
      "name": "House_05_Windows_Glass",
      "normalTexture": {
        "index": 8
      },
      "pbrMetallicRoughness": {
        "baseColorTexture": {
          "index": 6
        },
        "metallicRoughnessTexture": {
          "index": 7
        }
      }
    }
  ],
  "meshes": [
    {
      "name": "House_05_metal_roofing_House_05_metal_roofing_0",
      "primitives": [
        {
          "attributes": {
            "NORMAL": 1,
            "POSITION": 0,
            "TANGENT": 2,
            "TEXCOORD_0": 3
          },
          "indices": 4,
          "material": 0,
          "mode": 4
        }
      ]
    },
    {
      "name": "House_05_House_05_0",
      "primitives": [
        {
          "attributes": {
            "NORMAL": 6,
            "POSITION": 5,
            "TANGENT": 7,
            "TEXCOORD_0": 8
          },
          "indices": 9,
          "material": 1,
          "mode": 4
        }
      ]
    },
    {
      "name": "House_05_Window_Glass_House_05_Windows_Glass_0",
      "primitives": [
        {
          "attributes": {
            "NORMAL": 11,
            "POSITION": 10,
            "TANGENT": 12,
            "TEXCOORD_0": 13
          },
          "indices": 14,
          "material": 2,
          "mode": 4
        }
      ]
    }
  ],
  "nodes": [
    {
      "children": [
        1
      ],
      "matrix": [
        1.0,
        0.0,
        0.0,
        0.0,
        0.0,
        2.220446049250313e-16,
        -1.0,
        0.0,
        0.0,
        1.0,
        2.220446049250313e-16,
        0.0,
        0.0,
        0.0,
        0.0,
        1.0
      ],
      "name": "Sketchfab_model"
    },
    {
      "children": [
        2
      ],
      "matrix": [
        1.0,
        0.0,
        0.0,
        0.0,
        0.0,
        0.0,
        1.0,
        0.0,
        0.0,
        -1.0,
        0.0,
        0.0,
        0.0,
        0.0,
        0.0,
        1.0
      ],
      "name": "House_05.fbx"
    },
    {
      "children": [
        3,
        5,
        7
      ],
      "name": "RootNode"
    },
    {
      "children": [
        4
      ],
      "matrix": [
        100.0,
        0.0,
        0.0,
        0.0,
        0.0,
        -1.629206793918314e-05,
        -99.99999999999868,
        0.0,
        0.0,
        99.99999999999868,
        -1.629206793918314e-05,
        0.0,
        0.0,
        -249.99996948242188,
        0.0,
        1.0
      ],
      "name": "House_05_metal_roofing"
    },
    {
      "mesh": 0,
      "name": "House_05_metal_roofing_House_05_metal_roofing_0"
    },
    {
      "children": [
        6
      ],
      "matrix": [
        100.0,
        0.0,
        0.0,
        0.0,
        0.0,
        -1.629206793918314e-05,
        -99.99999999999868,
        0.0,
        0.0,
        99.99999999999868,
        -1.629206793918314e-05,
        0.0,
        0.0,
        -249.99996948242188,
        0.0,
        1.0
      ],
      "name": "House_05"
    },
    {
      "mesh": 1,
      "name": "House_05_House_05_0"
    },
    {
      "children": [
        8
      ],
      "matrix": [
        100.0,
        0.0,
        0.0,
        0.0,
        0.0,
        -1.629206793918314e-05,
        -99.99999999999868,
        0.0,
        0.0,
        99.99999999999868,
        -1.629206793918314e-05,
        0.0,
        0.0,
        -249.99996948242188,
        0.0,
        1.0
      ],
      "name": "House_05_Window_Glass"
    },
    {
      "mesh": 2,
      "name": "House_05_Window_Glass_House_05_Windows_Glass_0"
    }
  ],
  "samplers": [
    {
      "magFilter": 9729,
      "minFilter": 9987,
      "wrapS": 10497,
      "wrapT": 10497
    }
  ],
  "scene": 0,
  "scenes": [
    {
      "name": "Sketchfab_Scene",
      "nodes": [
        0
      ]
    }
  ],
  "textures": [
    {
      "sampler": 0,
      "source": 0
    },
    {
      "sampler": 0,
      "source": 1
    },
    {
      "sampler": 0,
      "source": 2
    },
    {
      "sampler": 0,
      "source": 3
    },
    {
      "sampler": 0,
      "source": 4
    },
    {
      "sampler": 0,
      "source": 5
    },
    {
      "sampler": 0,
      "source": 6
    },
    {
      "sampler": 0,
      "source": 7
    },
    {
      "sampler": 0,
      "source": 8
    }
  ]
}
